<svg width="340" height="87" viewBox="0 0 340 87" fill="none" xmlns="http://www.w3.org/2000/svg">
<path d="M47.1661 12.9679V16.2028C59.9271 17.6714 70.0728 27.7385 71.5563 40.4021H74.8137C73.3013 25.9699 61.7136 14.4656 47.1653 12.968L47.1661 12.9679Z" fill="#E2E2E2"/>
<path d="M43.9411 0.00109724C19.7112 0.00109724 0 19.5595 0 43.6016C0 44.683 0.0835031 45.7393 0.164128 46.8016H6.61413C8.25903 65.815 24.3581 80.802 43.9412 80.802C64.6144 80.802 81.4323 64.1141 81.4323 43.6016C81.4323 35.4801 78.781 27.9759 74.3085 21.858L72.0028 24.1459C75.8987 29.666 78.208 36.3637 78.208 43.6019L76.1918 43.6026H71.7575C71.7575 52.1947 67.781 59.8777 61.5569 64.9439L66.1202 69.4718C60.1381 74.5311 52.401 77.6033 43.9414 77.6033C35.4817 77.6033 27.7488 74.5311 21.7626 69.4718L24.0424 67.2126C29.435 71.6926 36.3715 74.4033 43.9416 74.4033C50.3398 74.4033 56.2801 72.4511 61.2241 69.139L58.8989 66.8319C54.5739 69.5841 49.4464 71.1998 43.9379 71.1998C36.0978 71.1998 29.0222 67.9519 23.9632 62.7584L21.6834 65.0205L19.4065 67.2826C13.3984 61.1547 9.67327 52.8055 9.67327 43.599C9.67327 36.364 11.992 29.6697 15.8907 24.1558L13.5757 21.8615C9.10254 27.9801 6.45196 35.4836 6.45196 43.6014H3.22696C3.22696 33.4442 7.05512 24.1764 13.3116 17.0706L15.5914 19.3327L17.8841 21.6049C23.5185 15.0478 31.5904 10.6128 40.7171 9.762V12.9649C25.1111 14.5714 12.901 27.6977 12.901 43.599C12.901 50.7705 15.4033 57.3619 19.5641 62.5997L21.8634 60.3182C18.2807 55.6752 16.126 49.886 16.126 43.5981C16.126 28.3789 28.6035 15.9976 43.9421 15.9976V12.7976L43.9428 11.6012V9.60108C54.3788 9.60108 63.7241 14.2669 70.0137 21.5947L74.5733 17.0704C80.8297 24.1775 84.658 33.4447 84.658 43.6012C84.658 65.8805 66.3949 84.0016 43.9419 84.0016C23.6926 84.0016 6.90602 69.2431 3.80081 50.0012L0.531946 50.0005C3.66978 71.0089 21.9109 87.2009 43.9441 87.2009C68.174 87.2009 87.8852 67.6425 87.8852 43.6005C87.8852 19.5584 68.174 0 43.9441 0L43.9411 0.00109724ZM74.8108 46.8016H78.0422C77.2943 54.7344 73.7821 61.8765 68.4767 67.2852L66.1969 65.0231C70.9178 60.1973 74.0751 53.8553 74.8108 46.8023V46.8016ZM70.0855 16.994C63.3259 10.4532 54.1059 6.40183 43.9409 6.40183C33.7759 6.40183 24.5522 10.4532 17.7963 16.994L15.5158 14.7348C22.8592 7.61198 32.8889 3.20201 43.9418 3.20201C55.0004 3.20201 65.0241 7.61125 72.3679 14.7348L70.0855 16.994Z" fill="#E2E2E2"/>
<path d="M43.9373 30.6266C50.9524 30.6266 56.6354 36.4415 56.6354 43.5949C56.6354 50.7592 50.9524 56.5741 43.9373 56.5741C36.9222 56.5741 31.2393 50.7592 31.2393 43.5949C31.2393 36.4415 36.9222 30.6266 43.9373 30.6266Z" stroke="#0500FF" stroke-width="7"/>
<path d="M25.5777 43.595L30.1649 35.4762L34.7628 27.3573H53.1331L57.7203 35.4762L62.3075 43.595L57.7203 51.7247L53.1331 59.8437H34.7628L30.1649 51.7247L25.5777 43.595Z" stroke="#0500FF" stroke-width="5"/>
<path d="M118.128 56.341V27.061H126.288C135.528 27.061 140.568 32.521 140.568 41.701C140.568 50.881 135.528 56.341 126.288 56.341H118.128ZM112.908 60.601H126.588C138.468 60.601 145.968 53.521 145.968 41.701C145.968 29.881 138.468 22.801 126.588 22.801H112.908V60.601ZM166.163 34.861C165.263 34.081 164.063 33.661 162.443 33.661C158.663 33.661 155.963 36.721 155.003 39.721V34.381H150.023V60.601H155.003V46.741C155.003 41.701 157.823 38.281 161.603 38.281C163.223 38.281 164.243 38.581 165.683 39.361L166.163 34.861ZM186.326 49.441C186.326 54.301 183.326 57.421 179.426 57.421C175.286 57.421 173.366 54.601 173.366 50.221V34.381H168.386V50.701C168.386 56.821 170.906 61.321 177.746 61.321C181.706 61.321 185.066 59.101 186.326 55.981V60.601H191.306V34.381H186.326V49.441ZM218.559 42.601C218.559 40.921 218.079 39.421 217.299 38.161C218.619 37.501 220.599 37.081 222.339 37.081V32.761C219.519 32.761 217.059 34.261 215.679 36.361C213.699 34.681 210.759 33.661 207.459 33.661C201.039 33.661 196.479 37.081 196.479 42.601C196.479 45.481 197.739 47.821 199.899 49.381C197.559 50.401 195.939 52.021 195.939 54.301C195.939 56.281 197.019 58.021 199.419 58.801C196.179 59.401 194.019 61.321 194.019 64.321C194.019 69.181 199.899 71.401 206.979 71.401C214.779 71.401 222.099 68.881 222.099 62.341C222.099 58.261 219.099 55.261 213.399 55.261H203.139C200.859 55.261 199.959 54.421 199.959 52.981C199.959 51.781 200.799 50.941 201.699 50.401C203.319 51.121 205.299 51.481 207.459 51.481C213.939 51.481 218.559 48.061 218.559 42.601ZM198.759 63.361C198.759 60.541 201.099 59.641 203.799 59.641H212.259C215.319 59.641 217.299 60.481 217.299 62.881C217.299 66.661 212.979 68.101 206.979 68.101C202.119 68.101 198.759 66.661 198.759 63.361ZM213.519 42.661C213.519 46.261 211.239 48.301 207.519 48.301C203.859 48.301 201.579 46.261 201.579 42.661C201.579 38.941 203.859 36.901 207.519 36.901C211.239 36.901 213.519 38.941 213.519 42.661ZM245.707 61.321C251.587 61.321 256.927 58.681 258.607 53.881V60.601H263.347V41.941H247.087V46.021H258.607C257.947 52.501 253.387 56.941 246.307 56.941C238.147 56.941 232.627 51.121 232.627 41.761C232.627 32.401 238.087 26.521 245.827 26.521C253.447 26.521 257.887 31.081 258.307 37.981L263.287 37.681C262.627 28.021 256.447 22.081 245.767 22.081C235.327 22.081 227.287 30.061 227.287 41.701C227.287 53.461 235.027 61.321 245.707 61.321ZM277.536 70.681L292.656 34.381H287.736L279.696 54.541H279.456L271.116 34.381H265.896L276.936 60.541L272.676 70.681H277.536ZM317.193 39.361C316.053 35.941 313.293 33.661 308.613 33.661C304.593 33.661 301.533 35.881 300.273 39.061V34.381H295.293V60.601H300.273V45.541C300.273 40.741 303.213 37.621 306.933 37.621C310.953 37.621 312.753 40.381 312.753 44.761V60.601H317.733V45.541C317.733 40.741 320.733 37.621 324.453 37.621C328.473 37.621 330.273 40.381 330.273 44.761V60.601H335.253V44.341C335.253 38.401 332.853 33.661 326.013 33.661C321.813 33.661 318.573 36.121 317.193 39.361Z" fill="black"/>
</svg>
